General
Complete name : The Last House on the Left [Unrated]2009.Hindi-DVDRip.aaaevilacharya
Format : Matroska
File size : 699 MiB
Duration : 1h 43mn
Overall bit rate : 948 Kbps
Encoded date : UTC 2010-09-21 19:14:35


Video
ID : 1
Format : MPEG-4 Visual
Format profile : Advanced Simple@L5
Format settings, BVOP : Yes
Format settings, QPel : No
Format settings, GMC : No warppoints
Format settings, Matrix : Default (H.263)
Codec ID : XVID
Codec ID/Hint : XviD
Duration : 1h 43mn
Bit rate : 801 Kbps
Width : 640 pixels
Height : 400 pixels
Display aspect ratio : 2.045
Original display aspect ratio : 1.600
Frame rate : 25.000 fps
Color space : YUV
Chroma subsampling : 4:2:0
Bit depth : 8 bits
Scan type : Progressive
Bits/(Pixel*Frame) : 0.125
Stream size : 591 MiB (85%)
Writing library : XviD 1.2.1
Language : Hindi

Audio
ID : 2
Format : MPEG Audio
Format version : Version 1
Format profile : Layer 3
Mode : Joint stereo
Mode extension : MS Stereo
Codec ID : A_MPEG/L3
Codec ID/Hint : MP3
Duration : 1h 43mn
Bit rate mode : Constant
Bit rate : 128 Kbps
Channel(s) : 2 channels
Sampling rate : 48.0 KHz
Stream size : 94.5 MiB (14%)
Writing library : LAME3.98r

seeds & enjoy.